<svg xmlns="http://www.w3.org/2000/svg" xmlns:xlink="http://www.w3.org/1999/xlink" viewBox="0 0 350.61 350.61"><defs><style>.cls-1{fill:url(#linear-gradient);}.cls-2{fill:#fff;}</style><linearGradient id="linear-gradient" x1="9.76" y1="9.76" x2="340.85" y2="340.85" gradientUnits="userSpaceOnUse"><stop offset="0" stop-color="#7bc792"/><stop offset="1" stop-color="#00aa79"/></linearGradient></defs><g id="Layer_2" data-name="Layer 2"><g id="Layer_1-2" data-name="Layer 1"><rect class="cls-1" width="350.61" height="350.61" rx="33.23"/><path class="cls-2" d="M229.68,191.65c-15.14,11.7-38.89,16.18-57.82,16.18h-31v76.74H97.53V66h74.33c20.65,0,42.33,4.48,57.82,16.52,15.14,11.7,23.4,28.91,23.4,54.37S245.16,179.61,229.68,191.65ZM196.3,107C188,100.8,179.43,99.08,165,99.08H140.89v75.71h23.75c14.79,0,23.05-1.38,31.66-7.57,8.26-6.2,13.42-15.14,13.42-30.29C209.72,122.14,204.9,113.19,196.3,107Z"/></g></g></svg>